<svg xmlns="http://www.w3.org/2000/svg" viewBox="0 0 760 352" width="760" height="352" font-family="Inter, 'Segoe UI Variable', 'Segoe UI', system-ui, -apple-system, sans-serif"><defs><linearGradient id="shell" x1="0" y1="0" x2="0" y2="1"><stop offset="0" stop-color="#17161d"/><stop offset="1" stop-color="#0e0d12"/></linearGradient><radialGradient id="aura" cx="0.1" cy="0" r="0.8"><stop offset="0" stop-color="#8b7cf6" stop-opacity="0.2"/><stop offset="1" stop-color="#8b7cf6" stop-opacity="0"/></radialGradient><radialGradient id="aura2" cx="0.95" cy="1" r="0.6"><stop offset="0" stop-color="#38bdf8" stop-opacity="0.08"/><stop offset="1" stop-color="#38bdf8" stop-opacity="0"/></radialGradient><linearGradient id="tile" x1="0" y1="0" x2="0" y2="1"><stop offset="0" stop-color="#ffffff" stop-opacity="0.055"/><stop offset="1" stop-color="#ffffff" stop-opacity="0.015"/></linearGradient><filter id="glow" x="-50%" y="-300%" width="200%" height="700%"><feGaussianBlur stdDeviation="3"/></filter><filter id="soft" x="-50%" y="-50%" width="200%" height="200%"><feGaussianBlur stdDeviation="8"/></filter><filter id="neon" x="-10%" y="-40%" width="120%" height="180%"><feGaussianBlur stdDeviation="2.4"/></filter><pattern id="dotsTrack" width="3" height="3" patternUnits="userSpaceOnUse"><rect width="2" height="2" fill="#ffffff" fill-opacity="0.08"/></pattern><pattern id="dotsWhite" width="3" height="3" patternUnits="userSpaceOnUse"><rect width="2" height="2" fill="#ffffff" fill-opacity="1"/></pattern><linearGradient id="fade" x1="0" y1="0" x2="1" y2="0"><stop offset="0" stop-color="#fff" stop-opacity="0.18"/><stop offset="0.7" stop-color="#fff" stop-opacity="0.75"/><stop offset="1" stop-color="#fff" stop-opacity="1"/></linearGradient><linearGradient id="shine" x1="0" y1="0" x2="1" y2="0"><stop offset="0" stop-color="#fff" stop-opacity="0"/><stop offset="0.5" stop-color="#fff" stop-opacity="1"/><stop offset="1" stop-color="#fff" stop-opacity="0"/></linearGradient><mask id="dotMask" maskUnits="userSpaceOnUse" x="0" y="0" width="4000" height="4000"><rect width="4000" height="4000" fill="url(#dotsWhite)"/></mask><pattern id="d8b7cf6" width="3" height="3" patternUnits="userSpaceOnUse"><rect width="2" height="2" fill="#c4b5fd" fill-opacity="1"/></pattern><linearGradient id="g8b7cf6" x1="0" y1="0" x2="1" y2="0"><stop offset="0" stop-color="#7c5cff"/><stop offset="1" stop-color="#c4b5fd"/></linearGradient><pattern id="d22c55e" width="3" height="3" patternUnits="userSpaceOnUse"><rect width="2" height="2" fill="#86efac" fill-opacity="1"/></pattern><linearGradient id="g22c55e" x1="0" y1="0" x2="1" y2="0"><stop offset="0" stop-color="#16a34a"/><stop offset="1" stop-color="#86efac"/></linearGradient><pattern id="df59e0b" width="3" height="3" patternUnits="userSpaceOnUse"><rect width="2" height="2" fill="#fde68a" fill-opacity="1"/></pattern><linearGradient id="gf59e0b" x1="0" y1="0" x2="1" y2="0"><stop offset="0" stop-color="#f59e0b"/><stop offset="1" stop-color="#fde68a"/></linearGradient><pattern id="def4444" width="3" height="3" patternUnits="userSpaceOnUse"><rect width="2" height="2" fill="#fca5a5" fill-opacity="1"/></pattern><linearGradient id="gef4444" x1="0" y1="0" x2="1" y2="0"><stop offset="0" stop-color="#ef4444"/><stop offset="1" stop-color="#fca5a5"/></linearGradient><pattern id="ae4e4e7" width="3" height="3" patternUnits="userSpaceOnUse"><rect width="2" height="2" fill="#e4e4e7" fill-opacity="1"/></pattern><pattern id="a8b7cf6" width="3" height="3" patternUnits="userSpaceOnUse"><rect width="2" height="2" fill="#8b7cf6" fill-opacity="1"/></pattern><pattern id="a38bdf8" width="3" height="3" patternUnits="userSpaceOnUse"><rect width="2" height="2" fill="#38bdf8" fill-opacity="1"/></pattern><pattern id="af472b6" width="3" height="3" patternUnits="userSpaceOnUse"><rect width="2" height="2" fill="#f472b6" fill-opacity="1"/></pattern><pattern id="a34d399" width="3" height="3" patternUnits="userSpaceOnUse"><rect width="2" height="2" fill="#34d399" fill-opacity="1"/></pattern><pattern id="afbbf24" width="3" height="3" patternUnits="userSpaceOnUse"><rect width="2" height="2" fill="#fbbf24" fill-opacity="1"/></pattern><pattern id="afb7185" width="3" height="3" patternUnits="userSpaceOnUse"><rect width="2" height="2" fill="#fb7185" fill-opacity="1"/></pattern><pattern id="aa3e635" width="3" height="3" patternUnits="userSpaceOnUse"><rect width="2" height="2" fill="#a3e635" fill-opacity="1"/></pattern></defs><rect x="3" y="3" width="754" height="346" rx="16" fill="url(#shell)"/><rect x="3" y="3" width="754" height="346" rx="16" fill="url(#aura)"/><rect x="3" y="3" width="754" height="346" rx="16" fill="url(#aura2)"/><rect x="3" y="3" width="754" height="346" rx="16" fill="none" stroke="#ffffff" stroke-opacity="0.09"/><rect x="3" y="3" width="754" height="346" rx="16" fill="none" pathLength="1000" stroke="#8b7cf6" stroke-width="4" stroke-linecap="round" stroke-opacity="0.55" stroke-dasharray="150 850" filter="url(#neon)"><animate attributeName="stroke-dashoffset" values="150;-850" dur="6s" repeatCount="indefinite"/></rect><rect x="3" y="3" width="754" height="346" rx="16" fill="none" pathLength="1000" stroke="#8b7cf6" stroke-width="1.2" stroke-linecap="round" stroke-opacity="0.35" stroke-dasharray="150 850" ><animate attributeName="stroke-dashoffset" values="150;-850" dur="6s" repeatCount="indefinite"/></rect><rect x="3" y="3" width="754" height="346" rx="16" fill="none" pathLength="1000" stroke="#a78bfa" stroke-width="1.4" stroke-linecap="round" stroke-opacity="0.7" stroke-dasharray="80 920" ><animate attributeName="stroke-dashoffset" values="80;-920" dur="6s" repeatCount="indefinite"/></rect><rect x="3" y="3" width="754" height="346" rx="16" fill="none" pathLength="1000" stroke="#e9d5ff" stroke-width="1.8" stroke-linecap="round" stroke-opacity="1" stroke-dasharray="28 972" ><animate attributeName="stroke-dashoffset" values="28;-972" dur="6s" repeatCount="indefinite"/></rect><circle cx="20" cy="22" r="7" fill="#8b7cf6" opacity="0.25"><animate attributeName="r" values="4;9;4" dur="2.6s" repeatCount="indefinite"/><animate attributeName="opacity" values="0.35;0;0.35" dur="2.6s" repeatCount="indefinite"/></circle><circle cx="20" cy="22" r="3.5" fill="#a78bfa"/><text x="32" y="26" font-size="13" font-weight="650" fill="#fafafa">Usage</text><text x="78" y="26" font-size="11" fill="#71717a">agents running</text><rect x="696" y="12" width="48" height="20" rx="10" fill="#ffffff" fill-opacity="0.045" stroke="#ffffff" stroke-opacity="0.09"/><text x="720" y="25.5" font-size="10.5" text-anchor="middle" fill="#fafafa" font-family="'JetBrains Mono', 'Cascadia Code', Consolas, monospace">$3.31</text><rect x="566" y="12" width="124" height="20" rx="10" fill="#ffffff" fill-opacity="0.045" stroke="#ffffff" stroke-opacity="0.09"/><text x="628" y="25.5" font-size="10.5" text-anchor="middle" fill="#a1a1aa" font-family="'JetBrains Mono', 'Cascadia Code', Consolas, monospace">14 turns · avg 38s</text><rect x="494" y="12" width="66" height="20" rx="10" fill="#ffffff" fill-opacity="0.045" stroke="#ffffff" stroke-opacity="0.09"/><text x="527" y="25.5" font-size="10.5" text-anchor="middle" fill="#c4b5fd" font-family="'JetBrains Mono', 'Cascadia Code', Consolas, monospace">opus-5-5</text><rect x="16" y="46" width="174.5" height="92" rx="10" fill="url(#tile)" stroke="#ffffff" stroke-opacity="0.08"/><circle cx="30" cy="64" r="2.5" fill="#c4b5fd"/><text x="38" y="67.5" font-size="9.5" font-weight="600" letter-spacing="1.3" fill="#a1a1aa">CONTEXT</text><text x="29" y="100" font-size="26" font-weight="700" fill="#fafafa" letter-spacing="-0.5">19<tspan font-size="14" font-weight="600" fill="#c4b5fd" dx="2">%</tspan></text><text x="178.5" y="100" font-size="10.5" text-anchor="end" fill="#71717a" font-family="'JetBrains Mono', 'Cascadia Code', Consolas, monospace">190k / 1.0M</text><rect x="29" y="114" width="148.5" height="10" rx="3" fill="#000000" fill-opacity="0.35" stroke="#ffffff" stroke-opacity="0.06"/><rect x="31" y="116" width="144.5" height="6" fill="url(#dotsTrack)"/><line x1="66.5" x2="66.5" y1="112" y2="126" stroke="#ffffff" stroke-opacity="0.14"/><line x1="103.5" x2="103.5" y1="112" y2="126" stroke="#ffffff" stroke-opacity="0.14"/><line x1="140.5" x2="140.5" y1="112" y2="126" stroke="#ffffff" stroke-opacity="0.14"/><mask id="fade-g0" maskUnits="userSpaceOnUse" x="0" y="0" width="4000" height="4000"><rect x="29" y="114" width="28.215" height="10" fill="url(#fade)"/></mask><clipPath id="clip-g0"><rect x="29" y="115" width="28.215" height="8"/></clipPath><rect x="29" y="114" width="28.215" height="10" fill="#c4b5fd" opacity="0.18" filter="url(#glow)"/><rect x="30" y="116" width="27.215" height="6" fill="url(#d8b7cf6)" mask="url(#fade-g0)"/><g clip-path="url(#clip-g0)"><g mask="url(#dotMask)"><rect x="-51" y="114" width="80" height="10" fill="url(#shine)"><animate attributeName="x" from="-51" to="57.215" dur="1.70s" begin="0.00s" repeatCount="indefinite"/></rect></g></g><rect x="54.215" y="111" width="6" height="16" rx="2" fill="#c4b5fd" filter="url(#glow)" opacity="0.5"><animate attributeName="opacity" values="0.2;0.8;0.2" dur="2.4s" repeatCount="indefinite"/></rect><rect x="55.715" y="112" width="3" height="14" rx="1.5" fill="#ffffff"/><rect x="200.5" y="46" width="174.5" height="92" rx="10" fill="url(#tile)" stroke="#ffffff" stroke-opacity="0.08"/><circle cx="214.5" cy="64" r="2.5" fill="#c4b5fd"/><text x="222.5" y="67.5" font-size="9.5" font-weight="600" letter-spacing="1.3" fill="#a1a1aa">5-HOUR CAP</text><text x="213.5" y="100" font-size="26" font-weight="700" fill="#fafafa" letter-spacing="-0.5">42<tspan font-size="14" font-weight="600" fill="#c4b5fd" dx="2">%</tspan></text><text x="363" y="100" font-size="10.5" text-anchor="end" fill="#71717a" font-family="'JetBrains Mono', 'Cascadia Code', Consolas, monospace">resets in 2h 13m</text><rect x="213.5" y="114" width="148.5" height="10" rx="3" fill="#000000" fill-opacity="0.35" stroke="#ffffff" stroke-opacity="0.06"/><rect x="215.5" y="116" width="144.5" height="6" fill="url(#dotsTrack)"/><line x1="251.5" x2="251.5" y1="112" y2="126" stroke="#ffffff" stroke-opacity="0.14"/><line x1="288.5" x2="288.5" y1="112" y2="126" stroke="#ffffff" stroke-opacity="0.14"/><line x1="325.5" x2="325.5" y1="112" y2="126" stroke="#ffffff" stroke-opacity="0.14"/><mask id="fade-g1" maskUnits="userSpaceOnUse" x="0" y="0" width="4000" height="4000"><rect x="213.5" y="114" width="62.37" height="10" fill="url(#fade)"/></mask><clipPath id="clip-g1"><rect x="213.5" y="115" width="62.37" height="8"/></clipPath><rect x="213.5" y="114" width="62.37" height="10" fill="#c4b5fd" opacity="0.18" filter="url(#glow)"/><rect x="214.5" y="116" width="61.37" height="6" fill="url(#d8b7cf6)" mask="url(#fade-g1)"/><g clip-path="url(#clip-g1)"><g mask="url(#dotMask)"><rect x="133.5" y="114" width="80" height="10" fill="url(#shine)"><animate attributeName="x" from="133.5" to="275.87" dur="1.82s" begin="0.40s" repeatCount="indefinite"/></rect></g></g><rect x="272.87" y="111" width="6" height="16" rx="2" fill="#c4b5fd" filter="url(#glow)" opacity="0.5"><animate attributeName="opacity" values="0.2;0.8;0.2" dur="2.4s" repeatCount="indefinite"/></rect><rect x="274.37" y="112" width="3" height="14" rx="1.5" fill="#ffffff"/><rect x="385" y="46" width="174.5" height="92" rx="10" fill="url(#tile)" stroke="#ffffff" stroke-opacity="0.08"/><circle cx="399" cy="64" r="2.5" fill="#fde68a"/><text x="407" y="67.5" font-size="9.5" font-weight="600" letter-spacing="1.3" fill="#a1a1aa">WEEKLY CAP</text><text x="398" y="100" font-size="26" font-weight="700" fill="#fafafa" letter-spacing="-0.5">83<tspan font-size="14" font-weight="600" fill="#fde68a" dx="2">%</tspan></text><text x="547.5" y="100" font-size="10.5" text-anchor="end" fill="#71717a" font-family="'JetBrains Mono', 'Cascadia Code', Consolas, monospace">resets in 3d 4h</text><rect x="398" y="114" width="148.5" height="10" rx="3" fill="#000000" fill-opacity="0.35" stroke="#ffffff" stroke-opacity="0.06"/><rect x="400" y="116" width="144.5" height="6" fill="url(#dotsTrack)"/><line x1="435.5" x2="435.5" y1="112" y2="126" stroke="#ffffff" stroke-opacity="0.14"/><line x1="472.5" x2="472.5" y1="112" y2="126" stroke="#ffffff" stroke-opacity="0.14"/><line x1="509.5" x2="509.5" y1="112" y2="126" stroke="#ffffff" stroke-opacity="0.14"/><mask id="fade-g2" maskUnits="userSpaceOnUse" x="0" y="0" width="4000" height="4000"><rect x="398" y="114" width="123.255" height="10" fill="url(#fade)"/></mask><clipPath id="clip-g2"><rect x="398" y="115" width="123.255" height="8"/></clipPath><rect x="398" y="114" width="123.255" height="10" fill="#fde68a" opacity="0.18" filter="url(#glow)"/><rect x="399" y="116" width="122.255" height="6" fill="url(#df59e0b)" mask="url(#fade-g2)"/><g clip-path="url(#clip-g2)"><g mask="url(#dotMask)"><rect x="318" y="114" width="80" height="10" fill="url(#shine)"><animate attributeName="x" from="318" to="521.255" dur="2.04s" begin="0.80s" repeatCount="indefinite"/></rect></g></g><rect x="518.255" y="111" width="6" height="16" rx="2" fill="#fde68a" filter="url(#glow)" opacity="0.5"><animate attributeName="opacity" values="0.2;0.8;0.2" dur="2.4s" repeatCount="indefinite"/></rect><rect x="519.755" y="112" width="3" height="14" rx="1.5" fill="#ffffff"/><rect x="569.5" y="46" width="174.5" height="92" rx="10" fill="url(#tile)" stroke="#ffffff" stroke-opacity="0.08"/><circle cx="583.5" cy="64" r="2.5" fill="#86efac"/><text x="591.5" y="67.5" font-size="9.5" font-weight="600" letter-spacing="1.3" fill="#a1a1aa">CACHE HITS</text><text x="732" y="67.5" font-size="10" text-anchor="end" fill="#71717a" font-family="'JetBrains Mono', 'Cascadia Code', Consolas, monospace">last 97%</text><text x="582.5" y="100" font-size="26" font-weight="700" fill="#fafafa" letter-spacing="-0.5">93<tspan font-size="14" font-weight="600" fill="#86efac" dx="2">%</tspan></text><text x="732" y="100" font-size="10.5" text-anchor="end" fill="#71717a" font-family="'JetBrains Mono', 'Cascadia Code', Consolas, monospace">5.8M read</text><rect x="582.5" y="114" width="148.5" height="10" rx="3" fill="#000000" fill-opacity="0.35" stroke="#ffffff" stroke-opacity="0.06"/><rect x="584.5" y="116" width="144.5" height="6" fill="url(#dotsTrack)"/><line x1="620.5" x2="620.5" y1="112" y2="126" stroke="#ffffff" stroke-opacity="0.14"/><line x1="657.5" x2="657.5" y1="112" y2="126" stroke="#ffffff" stroke-opacity="0.14"/><line x1="694.5" x2="694.5" y1="112" y2="126" stroke="#ffffff" stroke-opacity="0.14"/><mask id="fade-g3" maskUnits="userSpaceOnUse" x="0" y="0" width="4000" height="4000"><rect x="582.5" y="114" width="138.10500000000002" height="10" fill="url(#fade)"/></mask><clipPath id="clip-g3"><rect x="582.5" y="115" width="138.10500000000002" height="8"/></clipPath><rect x="582.5" y="114" width="138.10500000000002" height="10" fill="#86efac" opacity="0.18" filter="url(#glow)"/><rect x="583.5" y="116" width="137.10500000000002" height="6" fill="url(#d22c55e)" mask="url(#fade-g3)"/><g clip-path="url(#clip-g3)"><g mask="url(#dotMask)"><rect x="502.5" y="114" width="80" height="10" fill="url(#shine)"><animate attributeName="x" from="502.5" to="720.605" dur="2.09s" begin="1.20s" repeatCount="indefinite"/></rect></g></g><rect x="717.605" y="111" width="6" height="16" rx="2" fill="#86efac" filter="url(#glow)" opacity="0.5"><animate attributeName="opacity" values="0.2;0.8;0.2" dur="2.4s" repeatCount="indefinite"/></rect><rect x="719.105" y="112" width="3" height="14" rx="1.5" fill="#ffffff"/><text x="16" y="164" font-size="9.5" font-weight="600" letter-spacing="1.4" fill="#71717a">TOKEN FLOW</text><text x="744" y="164" font-size="10" text-anchor="end" fill="#71717a" font-family="'JetBrains Mono', 'Cascadia Code', Consolas, monospace">6.1M tokens</text><clipPath id="flowClip"><rect x="16" y="174" width="728" height="10" rx="5"/></clipPath><rect x="16" y="174" width="728" height="10" rx="5" fill="#ffffff" fill-opacity="0.05"/><g clip-path="url(#flowClip)"><rect x="16" y="174" width="0.48052805280528055" height="10" fill="#38bdf8" fill-opacity="0.85"/><rect x="16" y="174" width="0.48052805280528055" height="5" fill="#ffffff" fill-opacity="0.12"/><rect x="16.48052805280528" y="174" width="25.22772277227723" height="10" fill="#f472b6" fill-opacity="0.85"/><rect x="16.48052805280528" y="174" width="25.22772277227723" height="5" fill="#ffffff" fill-opacity="0.12"/><line x1="16.48052805280528" x2="16.48052805280528" y1="174" y2="184" stroke="#0e0d12" stroke-width="2"/><rect x="41.70825082508251" y="174" width="696.7656765676568" height="10" fill="#34d399" fill-opacity="0.85"/><rect x="41.70825082508251" y="174" width="696.7656765676568" height="5" fill="#ffffff" fill-opacity="0.12"/><line x1="41.70825082508251" x2="41.70825082508251" y1="174" y2="184" stroke="#0e0d12" stroke-width="2"/><rect x="738.4739273927393" y="174" width="5.526072607260726" height="10" fill="#fbbf24" fill-opacity="0.85"/><rect x="738.4739273927393" y="174" width="5.526072607260726" height="5" fill="#ffffff" fill-opacity="0.12"/><line x1="738.4739273927393" x2="738.4739273927393" y1="174" y2="184" stroke="#0e0d12" stroke-width="2"/></g><rect x="16" y="195" width="8" height="8" rx="2" fill="#38bdf8"/><text x="29" y="202.5" font-size="10.5" fill="#a1a1aa">input</text><text x="65" y="202.5" font-size="10.5" font-weight="600" fill="#e4e4e7" font-family="'JetBrains Mono', 'Cascadia Code', Consolas, monospace">4.0k</text><text x="94" y="202.5" font-size="10" fill="#52525b" font-family="'JetBrains Mono', 'Cascadia Code', Consolas, monospace">0%</text><rect x="198" y="195" width="8" height="8" rx="2" fill="#f472b6"/><text x="211" y="202.5" font-size="10.5" fill="#a1a1aa">cache write</text><text x="282" y="202.5" font-size="10.5" font-weight="600" fill="#e4e4e7" font-family="'JetBrains Mono', 'Cascadia Code', Consolas, monospace">210k</text><text x="311" y="202.5" font-size="10" fill="#52525b" font-family="'JetBrains Mono', 'Cascadia Code', Consolas, monospace">3%</text><rect x="380" y="195" width="8" height="8" rx="2" fill="#34d399"/><text x="393" y="202.5" font-size="10.5" fill="#a1a1aa">cache read</text><text x="458" y="202.5" font-size="10.5" font-weight="600" fill="#e4e4e7" font-family="'JetBrains Mono', 'Cascadia Code', Consolas, monospace">5.8M</text><text x="487" y="202.5" font-size="10" fill="#52525b" font-family="'JetBrains Mono', 'Cascadia Code', Consolas, monospace">96%</text><rect x="562" y="195" width="8" height="8" rx="2" fill="#fbbf24"/><text x="575" y="202.5" font-size="10.5" fill="#a1a1aa">output</text><text x="617" y="202.5" font-size="10.5" font-weight="600" fill="#e4e4e7" font-family="'JetBrains Mono', 'Cascadia Code', Consolas, monospace">46.0k</text><text x="652" y="202.5" font-size="10" fill="#52525b" font-family="'JetBrains Mono', 'Cascadia Code', Consolas, monospace">1%</text><text x="16" y="226" font-size="9.5" font-weight="600" letter-spacing="1.4" fill="#71717a">BY AGENT</text><text x="744" y="226" font-size="10" text-anchor="end" fill="#71717a" font-family="'JetBrains Mono', 'Cascadia Code', Consolas, monospace">3 subagent runs</text><clipPath id="shareClip"><rect x="16" y="236" width="728" height="6" rx="3"/></clipPath><rect x="16" y="236" width="728" height="6" rx="3" fill="#ffffff" fill-opacity="0.05"/><g clip-path="url(#shareClip)"><rect x="16" y="236" width="598.329504950495" height="6" fill="#e4e4e7" fill-opacity="0.9"/><rect x="614.329504950495" y="236" width="91.10811881188118" height="6" fill="#8b7cf6" fill-opacity="0.9"/><line x1="614.329504950495" x2="614.329504950495" y1="236" y2="242" stroke="#0e0d12" stroke-width="2"/><rect x="705.4376237623762" y="236" width="38.56237623762376" height="6" fill="#38bdf8" fill-opacity="0.9"/><line x1="705.4376237623762" x2="705.4376237623762" y1="236" y2="242" stroke="#0e0d12" stroke-width="2"/></g><rect x="16" y="255" width="728" height="26" rx="7" fill="#ffffff" fill-opacity="0.025"/><circle cx="28" cy="268" r="3.5" fill="#e4e4e7"/><text x="40" y="272" font-size="12" font-weight="600" fill="#f4f4f5">Conversation</text><text x="129" y="272" font-size="11" fill="#71717a">main loop</text><rect x="500" y="264" width="96" height="8" rx="3" fill="#000000" fill-opacity="0.35" stroke="#ffffff" stroke-opacity="0.06"/><rect x="502" y="266" width="92" height="4" fill="url(#dotsTrack)"/><line x1="524.5" x2="524.5" y1="262" y2="274" stroke="#ffffff" stroke-opacity="0.14"/><line x1="548.5" x2="548.5" y1="262" y2="274" stroke="#ffffff" stroke-opacity="0.14"/><line x1="572.5" x2="572.5" y1="262" y2="274" stroke="#ffffff" stroke-opacity="0.14"/><mask id="fade-a0" maskUnits="userSpaceOnUse" x="0" y="0" width="4000" height="4000"><rect x="500" y="264" width="78.90059405940593" height="8" fill="url(#fade)"/></mask><clipPath id="clip-a0"><rect x="500" y="265" width="78.90059405940593" height="6"/></clipPath><rect x="500" y="264" width="78.90059405940593" height="8" fill="#e4e4e7" opacity="0.18" filter="url(#glow)"/><rect x="501" y="266" width="77.90059405940593" height="4" fill="url(#ae4e4e7)" mask="url(#fade-a0)"/><g clip-path="url(#clip-a0)"><g mask="url(#dotMask)"><rect x="420" y="264" width="80" height="8" fill="url(#shine)"><animate attributeName="x" from="420" to="578.9005940594059" dur="1.88s" begin="0.30s" repeatCount="indefinite"/></rect></g></g><rect x="575.9005940594059" y="261" width="6" height="14" rx="2" fill="#e4e4e7" filter="url(#glow)" opacity="0.5"><animate attributeName="opacity" values="0.2;0.8;0.2" dur="2.4s" repeatCount="indefinite"/></rect><rect x="577.4005940594059" y="262" width="3" height="12" rx="1.5" fill="#ffffff"/><text x="606" y="272" font-size="11" font-weight="600" fill="#e4e4e7" font-family="'JetBrains Mono', 'Cascadia Code', Consolas, monospace">82%</text><text x="680" y="272" font-size="11" text-anchor="end" fill="#a1a1aa" font-family="'JetBrains Mono', 'Cascadia Code', Consolas, monospace">5.0M</text><text x="736" y="272" font-size="10.5" text-anchor="end" fill="#86efac" font-family="'JetBrains Mono', 'Cascadia Code', Consolas, monospace">98% hit</text><rect x="16" y="283" width="728" height="26" rx="7" fill="#ffffff" fill-opacity="0"/><circle cx="28" cy="296" r="6" fill="#8b7cf6" opacity="0.3"><animate attributeName="r" values="3;8;3" dur="1.6s" repeatCount="indefinite"/><animate attributeName="opacity" values="0.5;0;0.5" dur="1.6s" repeatCount="indefinite"/></circle><circle cx="28" cy="296" r="3.5" fill="#8b7cf6"/><text x="40" y="300" font-size="12" font-weight="600" fill="#f4f4f5">Explore</text><rect x="96" y="288" width="71" height="16" rx="8" fill="#8b7cf6" fill-opacity="0.14" stroke="#8b7cf6" stroke-opacity="0.35"/><text x="131.5" y="299.5" font-size="9.5" font-weight="600" text-anchor="middle" fill="#8b7cf6" font-family="'JetBrains Mono', 'Cascadia Code', Consolas, monospace">×2 · 1 live</text><text x="175" y="300" font-size="11" fill="#71717a">Find usage of config loader</text><rect x="500" y="292" width="96" height="8" rx="3" fill="#000000" fill-opacity="0.35" stroke="#ffffff" stroke-opacity="0.06"/><rect x="502" y="294" width="92" height="4" fill="url(#dotsTrack)"/><line x1="524.5" x2="524.5" y1="290" y2="302" stroke="#ffffff" stroke-opacity="0.14"/><line x1="548.5" x2="548.5" y1="290" y2="302" stroke="#ffffff" stroke-opacity="0.14"/><line x1="572.5" x2="572.5" y1="290" y2="302" stroke="#ffffff" stroke-opacity="0.14"/><mask id="fade-a1" maskUnits="userSpaceOnUse" x="0" y="0" width="4000" height="4000"><rect x="500" y="292" width="12.014257425742574" height="8" fill="url(#fade)"/></mask><clipPath id="clip-a1"><rect x="500" y="293" width="12.014257425742574" height="6"/></clipPath><rect x="500" y="292" width="12.014257425742574" height="8" fill="#8b7cf6" opacity="0.18" filter="url(#glow)"/><rect x="501" y="294" width="11.014257425742574" height="4" fill="url(#a8b7cf6)" mask="url(#fade-a1)"/><g clip-path="url(#clip-a1)"><g mask="url(#dotMask)"><rect x="420" y="292" width="80" height="8" fill="url(#shine)"><animate attributeName="x" from="420" to="512.0142574257426" dur="1.64s" begin="0.55s" repeatCount="indefinite"/></rect></g></g><rect x="509.0142574257426" y="289" width="6" height="14" rx="2" fill="#8b7cf6" filter="url(#glow)" opacity="0.5"><animate attributeName="opacity" values="0.2;0.8;0.2" dur="2.4s" repeatCount="indefinite"/></rect><rect x="510.5142574257426" y="290" width="3" height="12" rx="1.5" fill="#ffffff"/><text x="606" y="300" font-size="11" font-weight="600" fill="#e4e4e7" font-family="'JetBrains Mono', 'Cascadia Code', Consolas, monospace">13%</text><text x="680" y="300" font-size="11" text-anchor="end" fill="#a1a1aa" font-family="'JetBrains Mono', 'Cascadia Code', Consolas, monospace">758k</text><text x="736" y="300" font-size="10.5" text-anchor="end" fill="#86efac" font-family="'JetBrains Mono', 'Cascadia Code', Consolas, monospace">93% hit</text><rect x="16" y="311" width="728" height="26" rx="7" fill="#ffffff" fill-opacity="0.025"/><circle cx="28" cy="324" r="3.5" fill="#38bdf8"/><text x="40" y="328" font-size="12" font-weight="600" fill="#f4f4f5">general-purpose</text><rect x="149" y="316" width="23" height="16" rx="8" fill="#38bdf8" fill-opacity="0.14" stroke="#38bdf8" stroke-opacity="0.35"/><text x="160.5" y="327.5" font-size="9.5" font-weight="600" text-anchor="middle" fill="#38bdf8" font-family="'JetBrains Mono', 'Cascadia Code', Consolas, monospace">×1</text><text x="180" y="328" font-size="11" fill="#71717a">Run test suite and summarize</text><rect x="500" y="320" width="96" height="8" rx="3" fill="#000000" fill-opacity="0.35" stroke="#ffffff" stroke-opacity="0.06"/><rect x="502" y="322" width="92" height="4" fill="url(#dotsTrack)"/><line x1="524.5" x2="524.5" y1="318" y2="330" stroke="#ffffff" stroke-opacity="0.14"/><line x1="548.5" x2="548.5" y1="318" y2="330" stroke="#ffffff" stroke-opacity="0.14"/><line x1="572.5" x2="572.5" y1="318" y2="330" stroke="#ffffff" stroke-opacity="0.14"/><mask id="fade-a2" maskUnits="userSpaceOnUse" x="0" y="0" width="4000" height="4000"><rect x="500" y="320" width="5.085148514851486" height="8" fill="url(#fade)"/></mask><clipPath id="clip-a2"><rect x="500" y="321" width="5.085148514851486" height="6"/></clipPath><rect x="500" y="320" width="5.085148514851486" height="8" fill="#38bdf8" opacity="0.18" filter="url(#glow)"/><rect x="501" y="322" width="4.085148514851486" height="4" fill="url(#a38bdf8)" mask="url(#fade-a2)"/><g clip-path="url(#clip-a2)"><g mask="url(#dotMask)"><rect x="420" y="320" width="80" height="8" fill="url(#shine)"><animate attributeName="x" from="420" to="505.0851485148515" dur="1.62s" begin="0.80s" repeatCount="indefinite"/></rect></g></g><rect x="502.0851485148515" y="317" width="6" height="14" rx="2" fill="#38bdf8" filter="url(#glow)" opacity="0.5"><animate attributeName="opacity" values="0.2;0.8;0.2" dur="2.4s" repeatCount="indefinite"/></rect><rect x="503.5851485148515" y="318" width="3" height="12" rx="1.5" fill="#ffffff"/><text x="606" y="328" font-size="11" font-weight="600" fill="#e4e4e7" font-family="'JetBrains Mono', 'Cascadia Code', Consolas, monospace">5%</text><text x="680" y="328" font-size="11" text-anchor="end" fill="#a1a1aa" font-family="'JetBrains Mono', 'Cascadia Code', Consolas, monospace">321k</text><text x="736" y="328" font-size="10.5" text-anchor="end" fill="#86efac" font-family="'JetBrains Mono', 'Cascadia Code', Consolas, monospace">80% hit</text></svg>