<svg xmlns="http://www.w3.org/2000/svg" viewBox="-22.5 -11.34 225 204.12" width="225" height="204.12" stroke-miterlimit="10"><defs><radialGradient id="p0" gradientUnits="userSpaceOnUse" cx="46" cy="73" r="63" fx="53" fy="67" fr="9"><stop offset="0" stop-color="#5d6068"/><stop offset="1" stop-color="#353842"/><stop offset="1" stop-color="#090a0b"/></radialGradient><linearGradient id="p1" gradientUnits="userSpaceOnUse" x1="70" y1="95" x2="46" y2="84"><stop offset="0" stop-color="#000" stop-opacity="1"/><stop offset="1" stop-color="#000" stop-opacity="0"/></linearGradient><radialGradient id="p2" gradientUnits="userSpaceOnUse" cx="134" cy="73" r="63" fx="127" fy="67" fr="9"><stop offset="0" stop-color="#5d6068"/><stop offset="1" stop-color="#353842"/><stop offset="1" stop-color="#090a0b"/></radialGradient><linearGradient id="p3" gradientUnits="userSpaceOnUse" x1="110" y1="95" x2="134" y2="84"><stop offset="0" stop-color="#000" stop-opacity="1"/><stop offset="1" stop-color="#000" stop-opacity="0"/></linearGradient><linearGradient id="p4" gradientUnits="userSpaceOnUse" x1="18" y1="154" x2="18" y2="170"><stop offset="0" stop-color="#cc5828"/><stop offset="1" stop-color="#5d2812"/></linearGradient><radialGradient id="p5" gradientUnits="userSpaceOnUse" cx="90" cy="115" r="78" fx="69" fy="75" fr="5"><stop offset="0" stop-color="#efc2af"/><stop offset="0" stop-color="#d96c3f"/><stop offset="1" stop-color="#cc5828"/><stop offset="1" stop-color="#903e1d"/></radialGradient><clipPath id="p6"><path d="M90 51C119 51 142 76 142 106C145 134 120 157 90 157C60 157 35 134 35 106C38 76 61 51 90 51Z"/></clipPath><linearGradient id="p7" gradientUnits="userSpaceOnUse" x1="18" y1="104" x2="18" y2="157"><stop offset="0" stop-color="#5d2812" stop-opacity="0"/><stop offset="1" stop-color="#5d2812" stop-opacity="1"/></linearGradient><radialGradient id="p8" gradientUnits="userSpaceOnUse" cx="74" cy="66" r="51" fr="2"><stop offset="0" stop-color="#faebe5" stop-opacity="1"/><stop offset="1" stop-color="#faebe5" stop-opacity="0"/></radialGradient><linearGradient id="p9" gradientUnits="userSpaceOnUse" x1="35" y1="51" x2="145" y2="157"><stop offset="0" stop-color="#f4d4c6" stop-opacity="0"/><stop offset="0" stop-color="#f4d4c6" stop-opacity="0"/><stop offset="1" stop-color="#f4d4c6" stop-opacity="1"/><stop offset="1" stop-color="#f4d4c6" stop-opacity="0"/></linearGradient><linearGradient id="pa" gradientUnits="userSpaceOnUse" x1="34" y1="120" x2="47" y2="146"><stop offset="0" stop-color="#d96c3f"/><stop offset="1" stop-color="#903e1d"/></linearGradient><linearGradient id="pb" gradientUnits="userSpaceOnUse" x1="128" y1="123" x2="150" y2="143"><stop offset="0" stop-color="#d96c3f"/><stop offset="1" stop-color="#903e1d"/></linearGradient><linearGradient id="pc" gradientUnits="userSpaceOnUse" x1="33" y1="139" x2="44" y2="149"><stop offset="0" stop-color="#d96c3f"/><stop offset="1" stop-color="#903e1d"/></linearGradient><linearGradient id="pd" gradientUnits="userSpaceOnUse" x1="136" y1="139" x2="147" y2="149"><stop offset="0" stop-color="#d96c3f"/><stop offset="1" stop-color="#903e1d"/></linearGradient><linearGradient id="pe" gradientUnits="userSpaceOnUse" x1="18" y1="148" x2="18" y2="164"><stop offset="0" stop-color="#cc5828"/><stop offset="1" stop-color="#5d2812"/></linearGradient><radialGradient id="pf" gradientUnits="userSpaceOnUse" cx="90" cy="109" r="78" fx="69" fy="69" fr="5"><stop offset="0" stop-color="#efc2af"/><stop offset="0" stop-color="#d96c3f"/><stop offset="1" stop-color="#cc5828"/><stop offset="1" stop-color="#903e1d"/></radialGradient><clipPath id="pg"><path d="M90 45C119 45 142 70 142 100C145 128 120 151 90 151C60 151 35 128 35 100C38 70 61 45 90 45Z"/></clipPath><linearGradient id="ph" gradientUnits="userSpaceOnUse" x1="18" y1="98" x2="18" y2="151"><stop offset="0" stop-color="#5d2812" stop-opacity="0"/><stop offset="1" stop-color="#5d2812" stop-opacity="1"/></linearGradient><radialGradient id="pi" gradientUnits="userSpaceOnUse" cx="74" cy="60" r="51" fr="2"><stop offset="0" stop-color="#faebe5" stop-opacity="1"/><stop offset="1" stop-color="#faebe5" stop-opacity="0"/></radialGradient><linearGradient id="pj" gradientUnits="userSpaceOnUse" x1="35" y1="45" x2="145" y2="151"><stop offset="0" stop-color="#f4d4c6" stop-opacity="0"/><stop offset="0" stop-color="#f4d4c6" stop-opacity="0"/><stop offset="1" stop-color="#f4d4c6" stop-opacity="1"/><stop offset="1" stop-color="#f4d4c6" stop-opacity="0"/></linearGradient><linearGradient id="pk" gradientUnits="userSpaceOnUse" x1="44" y1="77" x2="20" y2="59"><stop offset="0" stop-color="#d96c3f"/><stop offset="1" stop-color="#903e1d"/></linearGradient><linearGradient id="pl" gradientUnits="userSpaceOnUse" x1="153" y1="82" x2="143" y2="54"><stop offset="0" stop-color="#d96c3f"/><stop offset="1" stop-color="#903e1d"/></linearGradient><linearGradient id="pm" gradientUnits="userSpaceOnUse" x1="23" y1="52" x2="34" y2="63"><stop offset="0" stop-color="#d96c3f"/><stop offset="1" stop-color="#903e1d"/></linearGradient><linearGradient id="pn" gradientUnits="userSpaceOnUse" x1="146" y1="52" x2="157" y2="63"><stop offset="0" stop-color="#d96c3f"/><stop offset="1" stop-color="#903e1d"/></linearGradient><linearGradient id="po" gradientUnits="userSpaceOnUse" x1="18" y1="153" x2="18" y2="169"><stop offset="0" stop-color="#cc5828"/><stop offset="1" stop-color="#5d2812"/></linearGradient><radialGradient id="pp" gradientUnits="userSpaceOnUse" cx="90" cy="114" r="78" fx="69" fy="74" fr="5"><stop offset="0" stop-color="#efc2af"/><stop offset="0" stop-color="#d96c3f"/><stop offset="1" stop-color="#cc5828"/><stop offset="1" stop-color="#903e1d"/></radialGradient><clipPath id="pq"><path d="M90 50C119 50 142 75 142 105C145 133 120 156 90 156C60 156 35 133 35 105C38 75 61 50 90 50Z"/></clipPath><linearGradient id="pr" gradientUnits="userSpaceOnUse" x1="18" y1="103" x2="18" y2="156"><stop offset="0" stop-color="#5d2812" stop-opacity="0"/><stop offset="1" stop-color="#5d2812" stop-opacity="1"/></linearGradient><radialGradient id="ps" gradientUnits="userSpaceOnUse" cx="74" cy="65" r="51" fr="2"><stop offset="0" stop-color="#faebe5" stop-opacity="1"/><stop offset="1" stop-color="#faebe5" stop-opacity="0"/></radialGradient><linearGradient id="pt" gradientUnits="userSpaceOnUse" x1="35" y1="50" x2="145" y2="156"><stop offset="0" stop-color="#f4d4c6" stop-opacity="0"/><stop offset="0" stop-color="#f4d4c6" stop-opacity="0"/><stop offset="1" stop-color="#f4d4c6" stop-opacity="1"/><stop offset="1" stop-color="#f4d4c6" stop-opacity="0"/></linearGradient><linearGradient id="pu" gradientUnits="userSpaceOnUse" x1="50" y1="108" x2="21" y2="109"><stop offset="0" stop-color="#d96c3f"/><stop offset="1" stop-color="#903e1d"/></linearGradient><linearGradient id="pv" gradientUnits="userSpaceOnUse" x1="140" y1="122" x2="149" y2="94"><stop offset="0" stop-color="#d96c3f"/><stop offset="1" stop-color="#903e1d"/></linearGradient><linearGradient id="pw" gradientUnits="userSpaceOnUse" x1="21" y1="96" x2="32" y2="107"><stop offset="0" stop-color="#d96c3f"/><stop offset="1" stop-color="#903e1d"/></linearGradient><linearGradient id="px" gradientUnits="userSpaceOnUse" x1="149" y1="96" x2="159" y2="107"><stop offset="0" stop-color="#d96c3f"/><stop offset="1" stop-color="#903e1d"/></linearGradient><linearGradient id="py" gradientUnits="userSpaceOnUse" x1="18" y1="149" x2="18" y2="166"><stop offset="0" stop-color="#cc5828"/><stop offset="1" stop-color="#5d2812"/></linearGradient><linearGradient id="pz" gradientUnits="userSpaceOnUse" x1="33" y1="97" x2="46" y2="123"><stop offset="0" stop-color="#d96c3f"/><stop offset="1" stop-color="#903e1d"/></linearGradient><radialGradient id="p10" gradientUnits="userSpaceOnUse" cx="90" cy="110" r="78" fx="69" fy="70" fr="5"><stop offset="0" stop-color="#efc2af"/><stop offset="0" stop-color="#d96c3f"/><stop offset="1" stop-color="#cc5828"/><stop offset="1" stop-color="#903e1d"/></radialGradient><clipPath id="p11"><path d="M90 47C119 47 142 71 142 102C145 130 120 153 90 153C60 153 35 130 35 102C38 71 61 47 90 47Z"/></clipPath><linearGradient id="p12" gradientUnits="userSpaceOnUse" x1="18" y1="100" x2="18" y2="153"><stop offset="0" stop-color="#5d2812" stop-opacity="0"/><stop offset="1" stop-color="#5d2812" stop-opacity="1"/></linearGradient><radialGradient id="p13" gradientUnits="userSpaceOnUse" cx="74" cy="62" r="51" fr="2"><stop offset="0" stop-color="#faebe5" stop-opacity="1"/><stop offset="1" stop-color="#faebe5" stop-opacity="0"/></radialGradient><linearGradient id="p14" gradientUnits="userSpaceOnUse" x1="35" y1="47" x2="145" y2="153"><stop offset="0" stop-color="#f4d4c6" stop-opacity="0"/><stop offset="0" stop-color="#f4d4c6" stop-opacity="0"/><stop offset="1" stop-color="#f4d4c6" stop-opacity="1"/><stop offset="1" stop-color="#f4d4c6" stop-opacity="0"/></linearGradient><linearGradient id="p15" gradientUnits="userSpaceOnUse" x1="151" y1="86" x2="139" y2="59"><stop offset="0" stop-color="#d96c3f"/><stop offset="1" stop-color="#903e1d"/></linearGradient><linearGradient id="p16" gradientUnits="userSpaceOnUse" x1="142" y1="56" x2="153" y2="67"><stop offset="0" stop-color="#d96c3f"/><stop offset="1" stop-color="#903e1d"/></linearGradient><linearGradient id="p17" gradientUnits="userSpaceOnUse" x1="18" y1="152" x2="18" y2="168"><stop offset="0" stop-color="#cc5828"/><stop offset="1" stop-color="#5d2812"/></linearGradient><linearGradient id="p18" gradientUnits="userSpaceOnUse" x1="33" y1="99" x2="46" y2="126"><stop offset="0" stop-color="#d96c3f"/><stop offset="1" stop-color="#903e1d"/></linearGradient><radialGradient id="p19" gradientUnits="userSpaceOnUse" cx="90" cy="113" r="78" fx="69" fy="72" fr="5"><stop offset="0" stop-color="#efc2af"/><stop offset="0" stop-color="#d96c3f"/><stop offset="1" stop-color="#cc5828"/><stop offset="1" stop-color="#903e1d"/></radialGradient><clipPath id="p1a"><path d="M90 49C119 49 142 74 142 104C145 132 120 155 90 155C60 155 35 132 35 104C38 74 61 49 90 49Z"/></clipPath><linearGradient id="p1b" gradientUnits="userSpaceOnUse" x1="18" y1="102" x2="18" y2="155"><stop offset="0" stop-color="#5d2812" stop-opacity="0"/><stop offset="1" stop-color="#5d2812" stop-opacity="1"/></linearGradient><radialGradient id="p1c" gradientUnits="userSpaceOnUse" cx="74" cy="64" r="51" fr="2"><stop offset="0" stop-color="#faebe5" stop-opacity="1"/><stop offset="1" stop-color="#faebe5" stop-opacity="0"/></radialGradient><linearGradient id="p1d" gradientUnits="userSpaceOnUse" x1="35" y1="49" x2="145" y2="155"><stop offset="0" stop-color="#f4d4c6" stop-opacity="0"/><stop offset="0" stop-color="#f4d4c6" stop-opacity="0"/><stop offset="1" stop-color="#f4d4c6" stop-opacity="1"/><stop offset="1" stop-color="#f4d4c6" stop-opacity="0"/></linearGradient><linearGradient id="p1e" gradientUnits="userSpaceOnUse" x1="140" y1="124" x2="136" y2="95"><stop offset="0" stop-color="#d96c3f"/><stop offset="1" stop-color="#903e1d"/></linearGradient><linearGradient id="p1f" gradientUnits="userSpaceOnUse" x1="139" y1="94" x2="149" y2="105"><stop offset="0" stop-color="#d96c3f"/><stop offset="1" stop-color="#903e1d"/></linearGradient><linearGradient id="p1g" gradientUnits="userSpaceOnUse" x1="47" y1="86" x2="24" y2="68"><stop offset="0" stop-color="#d96c3f"/><stop offset="1" stop-color="#903e1d"/></linearGradient><linearGradient id="p1h" gradientUnits="userSpaceOnUse" x1="151" y1="90" x2="139" y2="63"><stop offset="0" stop-color="#d96c3f"/><stop offset="1" stop-color="#903e1d"/></linearGradient><linearGradient id="p1i" gradientUnits="userSpaceOnUse" x1="27" y1="60" x2="38" y2="71"><stop offset="0" stop-color="#d96c3f"/><stop offset="1" stop-color="#903e1d"/></linearGradient><linearGradient id="p1j" gradientUnits="userSpaceOnUse" x1="142" y1="60" x2="153" y2="71"><stop offset="0" stop-color="#d96c3f"/><stop offset="1" stop-color="#903e1d"/></linearGradient><path id="u0" d="M70 95L57 58L31 36Q35 56 8 56Q32 72 8 83Q38 88 31 112Q53 101 65 107Z" fill="url(#p0)"/><path id="u1" d="M74 87L57 58L50 100L65 107" fill="url(#p1)"/><path id="u2" d="M70 95L57 58L31 36M57 58L8 56M57 58L8 83M57 58L31 112" fill="none" stroke="#090a0b" stroke-width="7" stroke-linecap="round" stroke-linejoin="round"/><path id="u3" d="M70 95L57 58L31 36M57 58L8 56M57 58L8 83" fill="none" stroke="#474748" stroke-width="2" stroke-linecap="round" stroke-linejoin="round"/><path id="u4" d="M110 95L123 58L149 36Q145 56 172 56Q148 72 172 83Q142 88 149 112Q127 101 115 107Z" fill="url(#p2)"/><path id="u5" d="M106 87L123 58L130 100L115 107" fill="url(#p3)"/><path id="u6" d="M110 95L123 58L149 36M123 58L172 56M123 58L172 83M123 58L149 112" fill="none" stroke="#090a0b" stroke-width="7" stroke-linecap="round" stroke-linejoin="round"/><path id="u7" d="M110 95L123 58L149 36M123 58L172 56M123 58L172 83" fill="none" stroke="#474748" stroke-width="2" stroke-linecap="round" stroke-linejoin="round"/><path id="u8" d="M134 167C134 170 114 172 90 172C66 172 46 170 46 167C46 164 66 162 90 162C114 162 134 164 134 167" fill="#3f1b0d" fill-opacity="0"/><path id="u9" d="M82 158C82 161 77 165 72 165C66 165 61 161 61 158C61 154 66 150 72 150C77 150 82 154 82 158" fill="url(#py)"/><path id="ua" d="M119 158C119 161 114 165 108 165C103 165 98 161 98 158C98 154 103 150 108 150C114 150 119 154 119 158" fill="url(#py)"/><path id="ub" d="M90 47C119 47 142 71 142 102C145 130 120 153 90 153C60 153 35 130 35 102C38 71 61 47 90 47Z" fill="url(#p10)"/><path id="uc" d="M64 89C64 90 63 91 62 91C61 91 60 90 60 89C60 88 61 87 62 87C63 87 64 88 64 89" fill="#faebe5" fill-opacity="0"/><path id="ud" d="M115 103C115 104 114 105 113 105C113 105 112 104 112 103C112 102 113 102 113 102C114 102 115 102 115 103" fill="#faebe5" fill-opacity="0"/><path id="ue" d="M79 126C79 127 78 128 77 128C76 128 75 127 75 126C75 125 76 124 77 124C78 124 79 125 79 126" fill="#faebe5" fill-opacity="0"/><path id="uf" d="M122 129C122 130 121 131 121 131C120 131 119 130 119 129C119 129 120 128 121 128C121 128 122 129 122 129" fill="#faebe5" fill-opacity="0"/><path id="ug" d="M57 116C57 117 56 117 56 117C55 117 55 117 55 116C55 115 55 115 56 115C56 115 57 115 57 116" fill="#faebe5" fill-opacity="0"/><path id="uh" d="M102 139C102 140 101 141 100 141C99 141 98 140 98 139C98 138 99 138 100 138C101 138 102 138 102 139" fill="#faebe5" fill-opacity="0"/><path id="ui" d="M71 142C71 143 71 143 70 143C70 143 69 143 69 142C69 141 70 141 70 141C71 141 71 141 71 142" fill="#faebe5" fill-opacity="0"/><path id="uj" d="M128 110C128 111 127 112 127 112C126 112 126 111 126 110C126 110 126 109 127 109C127 109 128 110 128 110" fill="#faebe5" fill-opacity="0"/><path id="uk" d="M35 100L145 100L145 205L35 205Z" fill="url(#p12)"/><path id="ul" d="M115 65C115 76 98 86 76 86C54 86 36 76 36 65C36 53 54 44 76 44C98 44 115 53 115 65" fill="url(#p13)" fill-opacity="1"/><path id="um" d="M90 47C119 47 142 71 142 102C145 130 120 153 90 153C60 153 35 130 35 102C38 71 61 47 90 47Z" fill="none" stroke="url(#p14)" stroke-width="9" stroke-linejoin="round"/><path id="un" d="M90 47C119 47 142 71 142 102C145 130 120 153 90 153C60 153 35 130 35 102C38 71 61 47 90 47Z" fill="none" stroke="#5d2812" stroke-width="4" stroke-opacity="1" stroke-linejoin="round"/></defs><g transform="translate(90 189)"><g><animateTransform attributeName="transform" type="translate" values="0 0;0 -4.725;0 0" keyTimes="0;0.5;1" calcMode="spline" keySplines=".42 0 .58 1;.42 0 .58 1" dur="0.34s" repeatCount="indefinite"/><g><g><animateTransform attributeName="transform" type="scale" values="1 1;1 1.02;1 1" keyTimes="0;0.5;1" calcMode="spline" keySplines=".42 0 .58 1;.42 0 .58 1" dur="0.34s" repeatCount="indefinite"/><g transform="translate(-90 -189)"><g visibility="visible"><animate attributeName="visibility" values="visible;hidden" keyTimes="0;0.0885" calcMode="discrete" dur="1.92s" repeatCount="indefinite"/><use href="#u0"/><use href="#u1"/><use href="#u2"/><use href="#u3"/><use href="#u4"/><use href="#u5"/><use href="#u6"/><use href="#u7"/><path d="M82 162C82 166 77 169 72 169C66 169 61 166 61 162C61 158 66 155 72 155C77 155 82 158 82 162" fill="url(#p4)"/><path d="M119 162C119 166 114 169 108 169C103 169 98 166 98 162C98 158 103 155 108 155C114 155 119 158 119 162" fill="url(#p4)"/><use href="#u8"/><path d="M90 51C119 51 142 76 142 106C145 134 120 157 90 157C60 157 35 134 35 106C38 76 61 51 90 51Z" fill="url(#p5)"/><g clip-path="url(#p6)"><path d="M64 93C64 94 63 95 62 95C61 95 60 94 60 93C60 92 61 92 62 92C63 92 64 92 64 93" fill="#faebe5" fill-opacity="0"/><path d="M115 108C115 109 114 109 113 109C113 109 112 109 112 108C112 107 113 106 113 106C114 106 115 107 115 108" fill="#faebe5" fill-opacity="0"/><path d="M79 130C79 131 78 132 77 132C76 132 75 131 75 130C75 129 76 128 77 128C78 128 79 129 79 130" fill="#faebe5" fill-opacity="0"/><path d="M122 134C122 135 121 135 121 135C120 135 119 135 119 134C119 133 120 133 121 133C121 133 122 133 122 134" fill="#faebe5" fill-opacity="0"/><path d="M57 120C57 121 56 122 56 122C55 122 55 121 55 120C55 120 55 119 56 119C56 119 57 120 57 120" fill="#faebe5" fill-opacity="0"/><path d="M102 144C102 145 101 145 100 145C99 145 98 145 98 144C98 143 99 142 100 142C101 142 102 143 102 144" fill="#faebe5" fill-opacity="0"/><path d="M71 146C71 147 71 148 70 148C70 148 69 147 69 146C69 146 70 145 70 145C71 145 71 146 71 146" fill="#faebe5" fill-opacity="0"/><path d="M128 115C128 116 127 116 127 116C126 116 126 116 126 115C126 114 126 114 127 114C127 114 128 114 128 115" fill="#faebe5" fill-opacity="0"/><path d="M35 104L145 104L145 210L35 210Z" fill="url(#p7)"/><path d="M115 69C115 81 98 90 76 90C54 90 36 81 36 69C36 58 54 48 76 48C98 48 115 58 115 69" fill="url(#p8)" fill-opacity="1"/><path d="M90 51C119 51 142 76 142 106C145 134 120 157 90 157C60 157 35 134 35 106C38 76 61 51 90 51Z" fill="none" stroke="url(#p9)" stroke-width="9" stroke-linejoin="round"/></g><path d="M90 51C119 51 142 76 142 106C145 134 120 157 90 157C60 157 35 134 35 106C38 76 61 51 90 51Z" fill="none" stroke="#5d2812" stroke-width="4" stroke-opacity="1" stroke-linejoin="round"/><path d="M52 91Q69 100 87 91" fill="none" stroke="#100809" stroke-width="6" stroke-linecap="round" stroke-linejoin="round"/><path d="M93 91Q111 100 128 91" fill="none" stroke="#100809" stroke-width="6" stroke-linecap="round" stroke-linejoin="round"/><path d="M80 117Q90 126 100 117" fill="none" stroke="#100809" stroke-width="5" stroke-opacity="1" stroke-linecap="round" stroke-linejoin="round"/><path d="M50 135C48 141 44 145 39 144C34 143 31 138 32 131C33 125 38 120 43 121C48 122 51 128 50 135" fill="url(#pa)" stroke="#5d2812" stroke-width="1" stroke-opacity="1" stroke-linecap="round" stroke-linejoin="round"/><path d="M148 131C149 138 146 143 141 144C136 145 132 141 130 135C129 128 132 122 137 121C142 120 147 125 148 131" fill="url(#pb)" stroke="#5d2812" stroke-width="1" stroke-opacity="1" stroke-linecap="round" stroke-linejoin="round"/><path d="M44 144C44 147 42 150 39 150C36 150 33 147 33 144C33 141 36 138 39 138C42 138 44 141 44 144" fill="url(#pc)" stroke="#5d2812" stroke-width="1" stroke-opacity="1" stroke-linecap="round" stroke-linejoin="round"/><path d="M35 143Q39 141 42 143" fill="none" stroke="#5d2812" stroke-width="1" stroke-opacity="1" stroke-linecap="round" stroke-linejoin="round"/><path d="M147 144C147 147 144 150 141 150C138 150 136 147 136 144C136 141 138 138 141 138C144 138 147 141 147 144" fill="url(#pd)" stroke="#5d2812" stroke-width="1" stroke-opacity="1" stroke-linecap="round" stroke-linejoin="round"/><path d="M138 143Q141 141 145 143" fill="none" stroke="#5d2812" stroke-width="1" stroke-opacity="1" stroke-linecap="round" stroke-linejoin="round"/></g><g visibility="hidden"><animate attributeName="visibility" values="hidden;visible;hidden" keyTimes="0;0.0885;0.2396" calcMode="discrete" dur="1.92s" repeatCount="indefinite"/><use href="#u0"/><use href="#u1"/><use href="#u2"/><use href="#u3"/><use href="#u4"/><use href="#u5"/><use href="#u6"/><use href="#u7"/><path d="M82 156C82 160 77 163 72 163C66 163 61 160 61 156C61 152 66 149 72 149C77 149 82 152 82 156" fill="url(#pe)"/><path d="M119 156C119 160 114 163 108 163C103 163 98 160 98 156C98 152 103 149 108 149C114 149 119 152 119 156" fill="url(#pe)"/><use href="#u8"/><path d="M90 45C119 45 142 70 142 100C145 128 120 151 90 151C60 151 35 128 35 100C38 70 61 45 90 45Z" fill="url(#pf)"/><g clip-path="url(#pg)"><path d="M64 88C64 89 63 89 62 89C61 89 60 89 60 88C60 87 61 86 62 86C63 86 64 87 64 88" fill="#faebe5" fill-opacity="0"/><path d="M115 102C115 103 114 103 113 103C113 103 112 103 112 102C112 101 113 100 113 100C114 100 115 101 115 102" fill="#faebe5" fill-opacity="0"/><path d="M79 124C79 126 78 126 77 126C76 126 75 126 75 124C75 123 76 122 77 122C78 122 79 123 79 124" fill="#faebe5" fill-opacity="0"/><path d="M122 128C122 129 121 129 121 129C120 129 119 129 119 128C119 127 120 127 121 127C121 127 122 127 122 128" fill="#faebe5" fill-opacity="0"/><path d="M57 115C57 115 56 116 56 116C55 116 55 115 55 115C55 114 55 113 56 113C56 113 57 114 57 115" fill="#faebe5" fill-opacity="0"/><path d="M102 138C102 139 101 140 100 140C99 140 98 139 98 138C98 137 99 136 100 136C101 136 102 137 102 138" fill="#faebe5" fill-opacity="0"/><path d="M71 141C71 141 71 142 70 142C70 142 69 141 69 141C69 140 70 139 70 139C71 139 71 140 71 141" fill="#faebe5" fill-opacity="0"/><path d="M128 109C128 110 127 110 127 110C126 110 126 110 126 109C126 109 126 108 127 108C127 108 128 109 128 109" fill="#faebe5" fill-opacity="0"/><path d="M35 98L145 98L145 204L35 204Z" fill="url(#ph)"/><path d="M115 63C115 75 98 85 76 85C54 85 36 75 36 63C36 52 54 42 76 42C98 42 115 52 115 63" fill="url(#pi)" fill-opacity="1"/><path d="M90 45C119 45 142 70 142 100C145 128 120 151 90 151C60 151 35 128 35 100C38 70 61 45 90 45Z" fill="none" stroke="url(#pj)" stroke-width="9" stroke-linejoin="round"/></g><path d="M90 45C119 45 142 70 142 100C145 128 120 151 90 151C60 151 35 128 35 100C38 70 61 45 90 45Z" fill="none" stroke="#5d2812" stroke-width="4" stroke-opacity="1" stroke-linejoin="round"/><path d="M52 91Q69 75 87 91" fill="none" stroke="#100809" stroke-width="6" stroke-linecap="round" stroke-linejoin="round"/><path d="M93 91Q111 75 128 91" fill="none" stroke="#100809" stroke-width="6" stroke-linecap="round" stroke-linejoin="round"/><path d="M95 114C95 118 92 120 90 120C88 120 86 118 86 114C86 111 88 109 90 109C92 109 95 111 95 114" fill="#100809" fill-opacity="1"/><path d="M23 71C22 64 24 58 29 57C33 55 39 59 41 66C42 72 40 78 35 79C31 81 25 77 23 71" fill="url(#pk)" stroke="#5d2812" stroke-width="1" stroke-opacity="1" stroke-linecap="round" stroke-linejoin="round"/><path d="M139 66C141 59 147 55 151 57C156 58 158 64 157 71C155 77 149 81 145 79C140 78 138 72 139 66" fill="url(#pl)" stroke="#5d2812" stroke-width="1" stroke-opacity="1" stroke-linecap="round" stroke-linejoin="round"/><path d="M34 57C34 60 32 63 29 63C26 63 23 60 23 57C23 54 26 52 29 52C32 52 34 54 34 57" fill="url(#pm)" stroke="#5d2812" stroke-width="1" stroke-opacity="1" stroke-linecap="round" stroke-linejoin="round"/><path d="M25 56Q29 54 32 56" fill="none" stroke="#5d2812" stroke-width="1" stroke-opacity="1" stroke-linecap="round" stroke-linejoin="round"/><path d="M157 57C157 60 154 63 151 63C148 63 146 60 146 57C146 54 148 52 151 52C154 52 157 54 157 57" fill="url(#pn)" stroke="#5d2812" stroke-width="1" stroke-opacity="1" stroke-linecap="round" stroke-linejoin="round"/><path d="M148 56Q151 54 155 56" fill="none" stroke="#5d2812" stroke-width="1" stroke-opacity="1" stroke-linecap="round" stroke-linejoin="round"/></g><g visibility="hidden"><animate attributeName="visibility" values="hidden;visible;hidden" keyTimes="0;0.2396;0.3229" calcMode="discrete" dur="1.92s" repeatCount="indefinite"/><use href="#u0"/><use href="#u1"/><use href="#u2"/><use href="#u3"/><use href="#u4"/><use href="#u5"/><use href="#u6"/><use href="#u7"/><path d="M82 161C82 165 77 168 72 168C66 168 61 165 61 161C61 157 66 154 72 154C77 154 82 157 82 161" fill="url(#po)"/><path d="M119 161C119 165 114 168 108 168C103 168 98 165 98 161C98 157 103 154 108 154C114 154 119 157 119 161" fill="url(#po)"/><use href="#u8"/><path d="M90 50C119 50 142 75 142 105C145 133 120 156 90 156C60 156 35 133 35 105C38 75 61 50 90 50Z" fill="url(#pp)"/><g clip-path="url(#pq)"><path d="M64 92C64 93 63 94 62 94C61 94 60 93 60 92C60 91 61 91 62 91C63 91 64 91 64 92" fill="#faebe5" fill-opacity="0"/><path d="M115 107C115 108 114 108 113 108C113 108 112 108 112 107C112 106 113 105 113 105C114 105 115 106 115 107" fill="#faebe5" fill-opacity="0"/><path d="M79 129C79 130 78 131 77 131C76 131 75 130 75 129C75 128 76 127 77 127C78 127 79 128 79 129" fill="#faebe5" fill-opacity="0"/><path d="M122 133C122 134 121 134 121 134C120 134 119 134 119 133C119 132 120 132 121 132C121 132 122 132 122 133" fill="#faebe5" fill-opacity="0"/><path d="M57 119C57 120 56 121 56 121C55 121 55 120 55 119C55 119 55 118 56 118C56 118 57 119 57 119" fill="#faebe5" fill-opacity="0"/><path d="M102 143C102 144 101 144 100 144C99 144 98 144 98 143C98 142 99 141 100 141C101 141 102 142 102 143" fill="#faebe5" fill-opacity="0"/><path d="M71 146C71 146 71 147 70 147C70 147 69 146 69 146C69 145 70 144 70 144C71 144 71 145 71 146" fill="#faebe5" fill-opacity="0"/><path d="M128 114C128 115 127 115 127 115C126 115 126 115 126 114C126 113 126 113 127 113C127 113 128 113 128 114" fill="#faebe5" fill-opacity="0"/><path d="M35 103L145 103L145 209L35 209Z" fill="url(#pr)"/><path d="M115 68C115 80 98 90 76 90C54 90 36 80 36 68C36 57 54 47 76 47C98 47 115 57 115 68" fill="url(#ps)" fill-opacity="1"/><path d="M90 50C119 50 142 75 142 105C145 133 120 156 90 156C60 156 35 133 35 105C38 75 61 50 90 50Z" fill="none" stroke="url(#pt)" stroke-width="9" stroke-linejoin="round"/></g><path d="M90 50C119 50 142 75 142 105C145 133 120 156 90 156C60 156 35 133 35 105C38 75 61 50 90 50Z" fill="none" stroke="#5d2812" stroke-width="4" stroke-opacity="1" stroke-linejoin="round"/><path d="M52 96Q69 80 87 96" fill="none" stroke="#100809" stroke-width="6" stroke-linecap="round" stroke-linejoin="round"/><path d="M93 96Q111 80 128 96" fill="none" stroke="#100809" stroke-width="6" stroke-linecap="round" stroke-linejoin="round"/><path d="M80 116Q90 125 100 116" fill="none" stroke="#100809" stroke-width="5" stroke-opacity="1" stroke-linecap="round" stroke-linejoin="round"/><path d="M30 116C25 112 23 106 26 101C29 97 35 97 41 101C46 105 48 111 45 115C42 119 36 119 30 116" fill="url(#pu)" stroke="#5d2812" stroke-width="1" stroke-opacity="1" stroke-linecap="round" stroke-linejoin="round"/><path d="M139 101C145 97 151 97 154 101C157 106 155 112 150 116C144 119 138 119 135 115C132 111 134 105 139 101" fill="url(#pv)" stroke="#5d2812" stroke-width="1" stroke-opacity="1" stroke-linecap="round" stroke-linejoin="round"/><path d="M32 102C32 105 29 107 26 107C23 107 21 105 21 102C21 99 23 96 26 96C29 96 32 99 32 102" fill="url(#pw)" stroke="#5d2812" stroke-width="1" stroke-opacity="1" stroke-linecap="round" stroke-linejoin="round"/><path d="M23 101Q26 99 30 101" fill="none" stroke="#5d2812" stroke-width="1" stroke-opacity="1" stroke-linecap="round" stroke-linejoin="round"/><path d="M159 102C159 105 157 107 154 107C151 107 148 105 148 102C148 99 151 96 154 96C157 96 159 99 159 102" fill="url(#px)" stroke="#5d2812" stroke-width="1" stroke-opacity="1" stroke-linecap="round" stroke-linejoin="round"/><path d="M150 101Q154 99 158 101" fill="none" stroke="#5d2812" stroke-width="1" stroke-opacity="1" stroke-linecap="round" stroke-linejoin="round"/></g><g visibility="hidden"><animate attributeName="visibility" values="hidden;visible;hidden;visible;hidden" keyTimes="0;0.3229;0.401;0.474;0.5521" calcMode="discrete" dur="1.92s" repeatCount="indefinite"/><use href="#u0"/><use href="#u1"/><use href="#u2"/><use href="#u3"/><use href="#u4"/><use href="#u5"/><use href="#u6"/><use href="#u7"/><use href="#u9"/><use href="#ua"/><path d="M48 112C47 118 42 123 37 122C33 121 29 115 31 109C32 102 37 98 42 99C46 100 50 106 48 112" fill="url(#pz)"/><use href="#u8"/><use href="#ub"/><g clip-path="url(#p11)"><use href="#uc"/><use href="#ud"/><use href="#ue"/><use href="#uf"/><use href="#ug"/><use href="#uh"/><use href="#ui"/><use href="#uj"/><use href="#uk"/><use href="#ul"/><use href="#um"/></g><use href="#un"/><path d="M52 92Q69 77 87 92" fill="none" stroke="#100809" stroke-width="6" stroke-linecap="round" stroke-linejoin="round"/><path d="M93 92Q111 77 128 92" fill="none" stroke="#100809" stroke-width="6" stroke-linecap="round" stroke-linejoin="round"/><path d="M95 116C95 119 92 121 90 121C88 121 86 119 86 116C86 112 88 110 90 110C92 110 95 112 95 116" fill="#100809" fill-opacity="1"/><path d="M136 70C138 64 143 60 148 61C153 62 155 68 154 74C152 81 147 85 142 84C137 82 135 76 136 70" fill="url(#p15)" stroke="#5d2812" stroke-width="1" stroke-opacity="1" stroke-linecap="round" stroke-linejoin="round"/><path d="M153 61C153 64 151 67 148 67C145 67 142 64 142 61C142 58 145 56 148 56C151 56 153 58 153 61" fill="url(#p16)" stroke="#5d2812" stroke-width="1" stroke-opacity="1" stroke-linecap="round" stroke-linejoin="round"/><path d="M144 60Q148 58 151 60" fill="none" stroke="#5d2812" stroke-width="1" stroke-opacity="1" stroke-linecap="round" stroke-linejoin="round"/></g><g visibility="hidden"><animate attributeName="visibility" values="hidden;visible;hidden;visible;hidden" keyTimes="0;0.401;0.474;0.5521;0.625" calcMode="discrete" dur="1.92s" repeatCount="indefinite"/><use href="#u0"/><use href="#u1"/><use href="#u2"/><use href="#u3"/><use href="#u4"/><use href="#u5"/><use href="#u6"/><use href="#u7"/><path d="M82 160C82 164 77 167 72 167C66 167 61 164 61 160C61 156 66 153 72 153C77 153 82 156 82 160" fill="url(#p17)"/><path d="M119 160C119 164 114 167 108 167C103 167 98 164 98 160C98 156 103 153 108 153C114 153 119 156 119 160" fill="url(#p17)"/><path d="M48 114C47 120 42 125 37 124C33 123 29 117 31 111C32 105 37 100 42 101C46 102 50 108 48 114" fill="url(#p18)"/><use href="#u8"/><path d="M90 49C119 49 142 74 142 104C145 132 120 155 90 155C60 155 35 132 35 104C38 74 61 49 90 49Z" fill="url(#p19)"/><g clip-path="url(#p1a)"><path d="M64 91C64 92 63 93 62 93C61 93 60 92 60 91C60 90 61 89 62 89C63 89 64 90 64 91" fill="#faebe5" fill-opacity="0"/><path d="M115 106C115 106 114 107 113 107C113 107 112 106 112 106C112 105 113 104 113 104C114 104 115 105 115 106" fill="#faebe5" fill-opacity="0"/><path d="M79 128C79 129 78 130 77 130C76 130 75 129 75 128C75 127 76 126 77 126C78 126 79 127 79 128" fill="#faebe5" fill-opacity="0"/><path d="M122 132C122 132 121 133 121 133C120 133 119 132 119 132C119 131 120 130 121 130C121 130 122 131 122 132" fill="#faebe5" fill-opacity="0"/><path d="M57 118C57 119 56 119 56 119C55 119 55 119 55 118C55 117 55 117 56 117C56 117 57 117 57 118" fill="#faebe5" fill-opacity="0"/><path d="M102 142C102 142 101 143 100 143C99 143 98 142 98 142C98 141 99 140 100 140C101 140 102 141 102 142" fill="#faebe5" fill-opacity="0"/><path d="M71 144C71 145 71 145 70 145C70 145 69 145 69 144C69 144 70 143 70 143C71 143 71 144 71 144" fill="#faebe5" fill-opacity="0"/><path d="M128 113C128 113 127 114 127 114C126 114 126 113 126 113C126 112 126 112 127 112C127 112 128 112 128 113" fill="#faebe5" fill-opacity="0"/><path d="M35 102L145 102L145 208L35 208Z" fill="url(#p1b)"/><path d="M115 67C115 79 98 88 76 88C54 88 36 79 36 67C36 55 54 46 76 46C98 46 115 55 115 67" fill="url(#p1c)" fill-opacity="1"/><path d="M90 49C119 49 142 74 142 104C145 132 120 155 90 155C60 155 35 132 35 104C38 74 61 49 90 49Z" fill="none" stroke="url(#p1d)" stroke-width="9" stroke-linejoin="round"/></g><path d="M90 49C119 49 142 74 142 104C145 132 120 155 90 155C60 155 35 132 35 104C38 74 61 49 90 49Z" fill="none" stroke="#5d2812" stroke-width="4" stroke-opacity="1" stroke-linejoin="round"/><path d="M52 89Q69 98 87 89" fill="none" stroke="#100809" stroke-width="6" stroke-linecap="round" stroke-linejoin="round"/><path d="M93 89Q111 98 128 89" fill="none" stroke="#100809" stroke-width="6" stroke-linecap="round" stroke-linejoin="round"/><path d="M80 114Q90 124 100 114" fill="none" stroke="#100809" stroke-width="5" stroke-opacity="1" stroke-linecap="round" stroke-linejoin="round"/><path d="M130 105C134 99 140 97 144 99C148 102 149 108 146 114C143 119 136 122 132 119C128 117 127 110 130 105" fill="url(#p1e)" stroke="#5d2812" stroke-width="1" stroke-opacity="1" stroke-linecap="round" stroke-linejoin="round"/><path d="M150 99C150 103 147 105 144 105C141 105 138 103 138 99C138 96 141 94 144 94C147 94 150 96 150 99" fill="url(#p1f)" stroke="#5d2812" stroke-width="1" stroke-opacity="1" stroke-linecap="round" stroke-linejoin="round"/><path d="M140 99Q144 96 148 99" fill="none" stroke="#5d2812" stroke-width="1" stroke-opacity="1" stroke-linecap="round" stroke-linejoin="round"/></g><g visibility="hidden"><animate attributeName="visibility" values="hidden;visible" keyTimes="0;0.625" calcMode="discrete" dur="1.92s" repeatCount="indefinite"/><use href="#u0"/><use href="#u1"/><use href="#u2"/><use href="#u3"/><use href="#u4"/><use href="#u5"/><use href="#u6"/><use href="#u7"/><use href="#u9"/><use href="#ua"/><use href="#u8"/><use href="#ub"/><g clip-path="url(#p11)"><use href="#uc"/><use href="#ud"/><use href="#ue"/><use href="#uf"/><use href="#ug"/><use href="#uh"/><use href="#ui"/><use href="#uj"/><use href="#uk"/><use href="#ul"/><use href="#um"/></g><use href="#un"/><path d="M52 89Q69 74 87 89" fill="none" stroke="#100809" stroke-width="6" stroke-linecap="round" stroke-linejoin="round"/><path d="M93 89Q111 74 128 89" fill="none" stroke="#100809" stroke-width="6" stroke-linecap="round" stroke-linejoin="round"/><path d="M80 112Q90 122 100 112" fill="none" stroke="#100809" stroke-width="5" stroke-opacity="1" stroke-linecap="round" stroke-linejoin="round"/><path d="M27 79C25 73 27 67 32 65C37 64 42 68 44 74C46 81 43 87 38 88C33 89 28 85 27 79" fill="url(#p1g)" stroke="#5d2812" stroke-width="1" stroke-opacity="1" stroke-linecap="round" stroke-linejoin="round"/><path d="M136 74C138 68 143 64 148 65C153 67 155 73 153 79C152 85 147 89 142 88C137 87 134 81 136 74" fill="url(#p1h)" stroke="#5d2812" stroke-width="1" stroke-opacity="1" stroke-linecap="round" stroke-linejoin="round"/><path d="M38 66C38 69 35 71 32 71C29 71 27 69 27 66C27 63 29 60 32 60C35 60 38 63 38 66" fill="url(#p1i)" stroke="#5d2812" stroke-width="1" stroke-opacity="1" stroke-linecap="round" stroke-linejoin="round"/><path d="M29 65Q32 63 36 65" fill="none" stroke="#5d2812" stroke-width="1" stroke-opacity="1" stroke-linecap="round" stroke-linejoin="round"/><path d="M153 66C153 69 151 71 148 71C145 71 142 69 142 66C142 63 145 60 148 60C151 60 153 63 153 66" fill="url(#p1j)" stroke="#5d2812" stroke-width="1" stroke-opacity="1" stroke-linecap="round" stroke-linejoin="round"/><path d="M144 65Q148 63 151 65" fill="none" stroke="#5d2812" stroke-width="1" stroke-opacity="1" stroke-linecap="round" stroke-linejoin="round"/></g><g transform="translate(79.2 9)"><path d="M0 -6L1.8 -1.8L6 0L1.8 1.8L0 6L-1.8 1.8L-6 0L-1.8 -1.8Z" fill="#fde047" opacity="0"><animate attributeName="opacity" values="0;1;1;0" keyTimes="0;.1;.6;1" dur="1.6s" begin="0.00s" repeatCount="indefinite"/><animateTransform attributeName="transform" type="translate" values="0 0;-18 70" dur="1.6s" begin="0.00s" repeatCount="indefinite"/></path></g><g transform="translate(108.9 16.2)"><path d="M0 -6L1.8 -1.8L6 0L1.8 1.8L0 6L-1.8 1.8L-6 0L-1.8 -1.8Z" fill="#f9a8d4" opacity="0"><animate attributeName="opacity" values="0;1;1;0" keyTimes="0;.1;.6;1" dur="1.6s" begin="0.27s" repeatCount="indefinite"/><animateTransform attributeName="transform" type="translate" values="0 0;18 70" dur="1.6s" begin="0.27s" repeatCount="indefinite"/></path></g><g transform="translate(63 23.400000000000002)"><path d="M0 -6L1.8 -1.8L6 0L1.8 1.8L0 6L-1.8 1.8L-6 0L-1.8 -1.8Z" fill="#a5f3fc" opacity="0"><animate attributeName="opacity" values="0;1;1;0" keyTimes="0;.1;.6;1" dur="1.6s" begin="0.54s" repeatCount="indefinite"/><animateTransform attributeName="transform" type="translate" values="0 0;-18 70" dur="1.6s" begin="0.54s" repeatCount="indefinite"/></path></g><g transform="translate(125.1 9)"><path d="M0 -6L1.8 -1.8L6 0L1.8 1.8L0 6L-1.8 1.8L-6 0L-1.8 -1.8Z" fill="#fde047" opacity="0"><animate attributeName="opacity" values="0;1;1;0" keyTimes="0;.1;.6;1" dur="1.6s" begin="0.81s" repeatCount="indefinite"/><animateTransform attributeName="transform" type="translate" values="0 0;18 70" dur="1.6s" begin="0.81s" repeatCount="indefinite"/></path></g><g transform="translate(46.8 16.2)"><path d="M0 -6L1.8 -1.8L6 0L1.8 1.8L0 6L-1.8 1.8L-6 0L-1.8 -1.8Z" fill="#f9a8d4" opacity="0"><animate attributeName="opacity" values="0;1;1;0" keyTimes="0;.1;.6;1" dur="1.6s" begin="1.08s" repeatCount="indefinite"/><animateTransform attributeName="transform" type="translate" values="0 0;-18 70" dur="1.6s" begin="1.08s" repeatCount="indefinite"/></path></g><g transform="translate(141.3 23.400000000000002)"><path d="M0 -6L1.8 -1.8L6 0L1.8 1.8L0 6L-1.8 1.8L-6 0L-1.8 -1.8Z" fill="#a5f3fc" opacity="0"><animate attributeName="opacity" values="0;1;1;0" keyTimes="0;.1;.6;1" dur="1.6s" begin="1.35s" repeatCount="indefinite"/><animateTransform attributeName="transform" type="translate" values="0 0;18 70" dur="1.6s" begin="1.35s" repeatCount="indefinite"/></path></g></g></g></g></g></g></svg>